<svg width="110" height="48" viewBox="0 0 110 48" fill="none" xmlns="http://www.w3.org/2000/svg">
    <g clip-path="url(#clip0_33_123)">
        <path d="M107.84 12.4749C108.236 12.4777 108.625 12.5791 108.972 12.7699C109.336 12.9632 109.634 13.2569 109.833 13.6155C110.034 13.9654 110.14 14.3608 110.141 14.7633C110.14 15.1621 110.035 15.5538 109.837 15.9004C109.64 16.2579 109.344 16.5519 108.985 16.7478C108.635 16.9446 108.241 17.0481 107.839 17.0481C107.437 17.0481 107.042 16.9446 106.693 16.7478C106.333 16.5516 106.037 16.2576 105.839 15.9004C105.638 15.5528 105.532 15.1589 105.532 14.758C105.532 14.3571 105.638 13.9632 105.839 13.6155C106.038 13.2564 106.337 12.9626 106.702 12.7699C107.05 12.5778 107.441 12.4763 107.84 12.4749V12.4749ZM107.84 12.8539C107.51 12.8566 107.187 12.9414 106.9 13.1007C106.596 13.2621 106.346 13.5074 106.179 13.8068C106.011 14.0964 105.923 14.4247 105.923 14.7589C105.923 15.0931 106.011 15.4214 106.179 15.7109C106.347 16.0098 106.597 16.2549 106.9 16.4171C107.19 16.5834 107.52 16.6709 107.855 16.6709C108.19 16.6709 108.52 16.5834 108.81 16.4171C109.114 16.2559 109.364 16.0106 109.53 15.7109C109.696 15.4221 109.784 15.0957 109.784 14.7633C109.783 14.4278 109.694 14.0983 109.527 13.8068C109.36 13.5074 109.11 13.2621 108.807 13.1007C108.511 12.9378 108.178 12.8528 107.84 12.8539ZM106.829 16.0327V13.5655H107.679C107.892 13.5557 108.106 13.5792 108.311 13.6352C108.439 13.6774 108.549 13.7611 108.623 13.873C108.698 13.9775 108.739 14.1023 108.74 14.2306C108.741 14.3179 108.724 14.4045 108.691 14.4852C108.657 14.566 108.608 14.6393 108.546 14.7008C108.409 14.8381 108.225 14.9186 108.031 14.926C108.109 14.9552 108.18 14.9996 108.241 15.0565C108.379 15.2053 108.5 15.369 108.601 15.5446L108.904 16.0255H108.414L108.194 15.6376C108.091 15.4234 107.95 15.2296 107.777 15.0655C107.682 15.0023 107.57 14.9721 107.456 14.9797H107.222V16.0327H106.829ZM107.229 14.6471H107.714C107.879 14.6635 108.045 14.6278 108.189 14.5452C108.23 14.5124 108.262 14.4706 108.284 14.4231C108.306 14.3757 108.317 14.3238 108.315 14.2717C108.316 14.2019 108.295 14.1335 108.254 14.0768C108.212 14.0179 108.153 13.973 108.085 13.9481C107.954 13.9121 107.818 13.8976 107.683 13.9052H107.229V14.6471Z" fill="#D25941"/>
        <path d="M0.206543 48.0348V13.3295H3.94286V17.715C4.82878 16.0321 5.99919 14.7401 7.45411 13.839C8.91168 12.9373 10.5986 12.4684 12.3158 12.4874C15.6254 12.4874 18.2837 13.6352 20.2909 15.9308C22.298 18.2264 23.3009 21.2698 23.2997 25.0612C23.2997 28.9205 22.3178 31.9855 20.3539 34.256C18.39 36.5265 15.7622 37.663 12.4707 37.6654C10.58 37.6654 8.93303 37.2274 7.52974 36.3513C6.12644 35.4753 4.98123 34.1702 4.09412 32.436V48.0348H0.206543ZM3.98788 25.0541C3.98788 27.6762 4.69853 29.7763 6.11983 31.3544C7.54114 32.9324 9.424 33.725 11.7684 33.7322C14.0564 33.7322 15.8571 33.0093 17.1703 31.5635C18.4836 30.1178 19.1396 28.1112 19.1384 25.5439C19.1384 22.6703 18.4824 20.4176 17.1703 18.7859C15.8583 17.1543 14.0318 16.3378 11.691 16.3366C9.29976 16.3366 7.4187 17.1114 6.04781 18.6608C4.67693 20.2102 3.99208 22.3437 3.99328 25.0612L3.98788 25.0541Z" fill="#D25941"/>
        <path d="M48.6273 13.3295V36.666H44.8154V32.4324C43.8958 34.1321 42.7212 35.4288 41.2915 36.3227C39.8554 37.2179 38.1902 37.6839 36.4946 37.6654C33.2007 37.6654 30.5465 36.5134 28.5322 34.2095C26.5179 31.9056 25.5107 28.8562 25.5107 25.0612C25.5107 21.2186 26.4891 18.162 28.4458 15.8915C30.4025 13.6209 33.0188 12.4886 36.2948 12.4946C38.2154 12.4946 39.8828 12.9326 41.2969 13.8086C42.711 14.6847 43.8514 15.9892 44.7181 17.7222V13.3295H48.6273ZM44.8154 25.215C44.8154 22.5797 44.1089 20.4582 42.696 18.8503C41.2831 17.2425 39.4399 16.4391 37.1663 16.4403C34.8098 16.4403 32.9708 17.1799 31.6491 18.659C30.3275 20.1381 29.6672 22.2043 29.6684 24.8574C29.6684 27.6798 30.3328 29.8562 31.6617 31.3866C32.9906 32.9169 34.8759 33.6821 37.3175 33.6821C39.6583 33.6821 41.4932 32.9384 42.8221 31.4509C44.1509 29.9634 44.8154 27.8848 44.8154 25.215Z" fill="#D25941"/>
        <path d="M75.5308 13.3295V36.2584C75.5308 38.7911 75.364 40.5939 75.0302 41.6666C74.6962 42.7347 74.1315 43.7176 73.3755 44.5467C72.2999 45.7246 70.9531 46.6263 69.4501 47.1748C67.9039 47.7481 66.1279 48.0348 64.122 48.0348C60.6408 48.0348 57.9278 47.2273 55.9831 45.6123C54.0384 43.9973 53.0229 41.7101 52.9364 38.7506H57.3498V39.0563C57.3498 40.8084 57.9434 42.1606 59.1306 43.1129C60.3178 44.0652 61.9984 44.542 64.1724 44.5432C65.7438 44.5432 67.0858 44.2839 68.1986 43.7655C69.2707 43.2818 70.1613 42.4739 70.7429 41.4574C71.1089 40.8379 71.363 40.1596 71.4938 39.4532C71.645 38.688 71.7201 37.5915 71.7189 36.1636V32.2304C70.833 33.899 69.6716 35.1785 68.2346 36.0689C66.7831 36.9649 65.1036 37.4296 63.3945 37.4079C60.0994 37.4079 57.4452 36.2685 55.4321 33.9896C53.419 31.7107 52.4118 28.684 52.4106 24.9093C52.4106 21.0952 53.3884 18.0732 55.3439 15.8432C57.2994 13.6132 59.9157 12.4952 63.1929 12.4892C65.0991 12.4892 66.7713 12.9272 68.2094 13.8033C69.6475 14.6793 70.7843 15.9671 71.6198 17.6668V13.3295H75.5308ZM71.7189 25.0612C71.7189 22.4391 71.0172 20.3306 69.6139 18.7359C68.2106 17.1412 66.3632 16.342 64.0716 16.3384C61.7139 16.3384 59.8749 17.078 58.5544 18.5571C57.2339 20.0362 56.5737 22.1024 56.5737 24.7555C56.5737 27.5791 57.2382 29.7555 58.567 31.2846C59.8959 32.8138 61.7818 33.579 64.2246 33.5802C66.5654 33.5802 68.4003 32.8281 69.7292 31.324C71.058 29.8198 71.7213 27.7322 71.7189 25.0612Z" fill="#D25941"/>
        <path d="M102.535 13.3295V36.666H98.7228V32.4324C97.8045 34.1332 96.6286 35.43 95.1953 36.3227C93.7592 37.2179 92.094 37.6839 90.3984 37.6654C87.1033 37.6654 84.4491 36.5134 82.436 34.2095C80.4229 31.9056 79.4158 28.8562 79.4146 25.0612C79.4146 21.2186 80.3923 18.162 82.3478 15.8915C84.3033 13.6209 86.9196 12.4886 90.1968 12.4946C92.1174 12.4946 93.7854 12.9326 95.2007 13.8086C96.616 14.6847 97.7564 15.9892 98.622 17.7222V13.3295H102.535ZM98.7228 25.215C98.7228 22.5797 98.0169 20.4582 96.6052 18.8503C95.1935 17.2425 93.3503 16.4391 91.0755 16.4403C88.7178 16.4403 86.8788 17.1799 85.5583 18.659C84.2379 20.1381 83.5776 22.2043 83.5776 24.8574C83.5776 27.6798 84.2421 29.8562 85.5709 31.3866C86.8998 32.9169 88.7875 33.6821 91.2339 33.6821C93.5748 33.6821 95.4096 32.9384 96.7385 31.4509C98.0674 29.9634 98.7288 27.8848 98.7228 25.215Z" fill="#D25941"/>
    </g>
    <defs>
        <clipPath id="clip0_33_123">
            <rect width="110" height="48" fill="white"/>
        </clipPath>
    </defs>
</svg>
